# Blender 3.1.0
# www.blender.org
mtllib Ship.mtl
o Cube
v 1.000000 0.198125 -1.000000
v 1.000000 -0.198125 -1.000000
v 1.000000 0.198125 1.000000
v 1.000000 -0.198125 1.000000
v -0.502608 0.204891 -0.698089
v -0.502608 -0.204891 -0.698089
v -0.502608 0.204891 0.698089
v -0.502608 -0.204891 0.698089
v -2.502668 -0.078211 0.000000
v -0.502668 0.204891 0.000000
v -2.502668 0.078211 0.000000
v -0.502668 -0.204891 0.000000
vn -0.0342 0.9994 -0.0000
vn -0.1970 -0.0000 0.9804
vn -0.3295 -0.0000 -0.9441
vn -0.0342 -0.9994 -0.0000
vn 0.5540 -0.0000 -0.8325
vn -0.1970 -0.0000 -0.9804
vn 0.5540 -0.0000 0.8325
vn -0.3295 -0.0000 0.9441
vt 0.680018 0.045426
vt 0.963435 0.049593
vt 0.254653 0.976689
vt 0.765497 0.045426
vt 0.877956 0.049593
vt 0.008264 0.008304
vt 0.686091 0.976689
vt 0.863877 0.048575
vt 0.963435 0.828338
vt 0.778398 0.048575
vt 0.439704 0.008304
vt 0.877956 0.828338
vt 0.678559 0.376045
vt 0.319781 0.652543
vt 0.766957 0.376045
vt 0.073393 0.332450
vt 0.620964 0.652544
vt 0.865336 0.379195
vt 0.374575 0.332449
vt 0.776938 0.379195
vt 0.739629 0.833023
vt 0.223985 0.764766
vt 0.804265 0.836173
vt 0.964895 0.438966
vt 0.470372 0.652531
vt 0.705886 0.833023
vt 0.838008 0.836173
vt 0.470373 0.220227
vt 0.876497 0.438966
vt 0.223984 0.332462
s 0
usemtl Material
f 10/25/1 11/28/1 7/17/1 3/7/1
f 4/10/2 3/8/2 7/18/2 8/20/2
f 9/21/3 11/26/3 5/13/3 6/15/3
f 9/22/4 12/30/4 4/11/4 8/19/4
f 12/29/5 10/24/5 3/9/5 4/12/5
f 6/15/6 5/13/6 1/1/6 2/4/6
f 2/5/7 1/2/7 10/24/7 12/29/7
f 6/16/4 2/6/4 12/30/4 9/22/4
f 8/20/8 7/18/8 11/27/8 9/23/8
f 1/3/1 5/14/1 11/28/1 10/25/1
